PathFileType	4	(X/Y/Z)	C:/Users/opensim2020/Desktop/walking_exp_matlab/subject02_walking16_run.trc																																																																																																																																																							
DataRate	CameraRate	NumFrames	NumMarkers	Units	OrigDataRate	OrigDataStartFrame	OrigNumFrames																																																																																																																																																			
100	100	4	51	mm	100	230	124																																																																																																																																																			
Frame#	Time	RTOE			LSHO			LELB			RELB			RFIN			LTHI			LKNE			RWRB			RUPA			LTIB			RASI			LANK			LTOE			RSHO			RWRA			RFRM			LASI			STRN			LFHD			RTHI			RFHD			LWRB			LFIN			LUPA			RKNE			RBHD			LFRM			C7			LWRA			RTIB			CLAV			LHEE			RANK			LBHD			RBAK			RHEE			T10			LPSI			RPSI			*39			*40			*41			*42			*43			*44			*45			*46			*47			*48			*49			*50		
		X1	Y1	Z1	X2	Y2	Z2	X3	Y3	Z3	X4	Y4	Z4	X5	Y5	Z5	X6	Y6	Z6	X7	Y7	Z7	X8	Y8	Z8	X9	Y9	Z9	X10	Y10	Z10	X11	Y11	Z11	X12	Y12	Z12	X13	Y13	Z13	X14	Y14	Z14	X15	Y15	Z15	X16	Y16	Z16	X17	Y17	Z17	X18	Y18	Z18	X19	Y19	Z19	X20	Y20	Z20	X21	Y21	Z21	X22	Y22	Z22	X23	Y23	Z23	X24	Y24	Z24	X25	Y25	Z25	X26	Y26	Z26	X27	Y27	Z27	X28	Y28	Z28	X29	Y29	Z29	X30	Y30	Z30	X31	Y31	Z31	X32	Y32	Z32	X33	Y33	Z33	X34	Y34	Z34	X35	Y35	Z35	X36	Y36	Z36	X37	Y37	Z37	X38	Y38	Z38	X39	Y39	Z39	X40	Y40	Z40	X41	Y41	Z41	X42	Y42	Z42	X43	Y43	Z43	X44	Y44	Z44	X45	Y45	Z45	X46	Y46	Z46	X47	Y47	Z47	X48	Y48	Z48	X49	Y49	Z49	X50	Y50	Z50	X51	Y51	Z51
																																																																																																																																																										
78	0.77	283.70062	52.2044	140.93336	728.19843	1525.36633	-112.27681	606.28809	1397.8811	-387.50317	832.43433	1239.25574	376.44745	1015.11487	1354.07251	173.46303	873.76312	735.53479	-112.67204	935.2287	546.10944	-75.1385	1000.82465	1293.10596	202.4653	779.82648	1369.12341	337.60361	889.72272	358.01291	-87.82771	794.42572	968.75879	189.65842	877.00116	132.86414	-47.06208	1022.33502	84.75652	-19.7034	759.27509	1523.29138	211.77504	957.10907	1325.16162	187.0938	920.33636	1264.44739	292.7019	821.37018	1008.23535	-58.13054	858.8598	1295.19922	41.71286	814.20197	1757.11975	-35.13001	590.70026	693.31812	235.97673	816.81738	1747.92847	108.97964	696.92627	1150.13342	-356.00571	739.90411	1101.93433	-330.39731	657.92767	1472.7168	-274.1517	496.47061	508.76895	193.79076	690.17694	1646.74866	104.55773	649.9129	1265.36035	-386.54272	674.09625	1533.25391	50.09745	726.01886	1176.74438	-313.78931	361.28848	378.26639	193.39922	815.23096	1470.90027	28.87489	829.95746	110.38365	-1.92584	249.50333	220.18341	165.36395	699.12811	1659.66248	-37.9941	621.20477	1371.33313	130.93692	209.74869	222.96034	104.5703	609.82111	1269.85205	69.75925	609.88129	1062.13342	-0.98389	603.40344	1056.52393	116.15811	NaN	NaN	NaN	2846.14795	1034.44104	-3357.34644	NaN	NaN	NaN	NaN	NaN	NaN	NaN	NaN	NaN	NaN	NaN	NaN	NaN	NaN	NaN	NaN	NaN	NaN	NaN	NaN	NaN	NaN	NaN	NaN	701.4549	1808.28503	49.91025	NaN	NaN	NaN
79	0.78	302.21756	66.47243	149.60306	765.37231	1527.31543	-112.00993	632.5614	1399.98694	-382.56686	882.90509	1247.72241	377.52878	1054.58459	1368.46167	166.70297	912.9632	738.94995	-111.43283	973.6958	545.18475	-76.99432	1042.46899	1307.12366	196.76448	828.10559	1377.20557	337.0383	946.40625	351.86853	-88.24799	837.58478	974.14587	188.82719	958.34979	126.02657	-45.11953	1107.37891	91.97401	-12.19587	802.20886	1527.00366	207.94485	997.77631	1338.37292	183.02933	966.83282	1275.72229	290.40533	864.21033	1013.62524	-56.42675	898.88782	1299.97522	39.1392	854.53369	1759.03076	-37.36969	623.01294	702.50806	236.63062	856.35767	1749.53674	106.87453	730.10706	1155.00842	-347.95831	775.60211	1109.05823	-323.07047	689.72833	1474.84839	-271.54468	529.06439	518.48999	195.95319	729.09485	1649.3822	101.71733	679.19611	1268.6156	-379.97238	713.8103	1536.01624	50.2452	759.93457	1183.65234	-307.57422	391.00613	390.74957	195.90695	854.21057	1474.86304	25.47799	913.71826	100.4427	-0.57928	274.25323	236.32068	169.05064	738.80908	1662.37805	-40.71598	663.70502	1374.05127	134.27112	233.70053	239.55579	109.14464	651.26135	1271.72278	71.82834	652.97717	1067.26709	-1.76744	645.83435	1062.35242	115.03371	NaN	NaN	NaN	2846.06592	1034.33093	-3357.21167	NaN	NaN	NaN	NaN	NaN	NaN	NaN	NaN	NaN	NaN	NaN	NaN	NaN	NaN	NaN	NaN	NaN	NaN	NaN	NaN	NaN	NaN	NaN	NaN	741.89984	1811.00037	47.16026	NaN	NaN	NaN
80	0.79	323.99442	83.17342	160.52551	802.93079	1528.02795	-111.89713	660.36835	1399.20435	-377.73401	931.50903	1254.00146	378.483	1093.00867	1379.6781	160.44061	951.84625	739.72479	-111.68578	1010.60297	542.60919	-78.6667	1083.11206	1318.0199	191.65062	873.80066	1382.87317	335.94293	996.89545	347.21854	-86.94961	880.43048	978.48645	187.87076	1035.3667	123.09515	-43.83986	1186.45154	100.81221	-6.66546	844.65082	1529.24097	204.86691	1037.40479	1348.46399	179.99393	1012.00409	1284.37732	288.25739	906.06421	1017.85474	-54.43538	939.32166	1303.47656	36.0276	894.81836	1760.26477	-39.47688	657.3045	712.0719	236.3595	895.95746	1750.53357	104.21635	765.42706	1157.68994	-339.21982	813.52515	1114.37415	-314.92981	721.29242	1474.44604	-268.82813	566.01855	525.52374	197.61755	768.28149	1651.14783	99.1707	710.26349	1268.96741	-373.32275	753.24304	1537.49377	50.18072	795.40912	1188.55457	-300.6506	422.57373	402.20801	198.36656	893.64764	1477.16931	22.1206	993.2215	95.02365	0.7045	298.31662	253.92787	168.60994	778.61389	1664.05713	-43.23364	705.81519	1376.11597	137.48795	258.2261	253.83867	106.6017	692.7605	1272.63367	74.16824	695.8089	1071.59412	-2.39545	688.14124	1067.27014	113.77076	NaN	NaN	NaN	2845.24683	1034.25342	-3360.32813	NaN	NaN	NaN	NaN	NaN	NaN	NaN	NaN	NaN	NaN	NaN	NaN	NaN	NaN	NaN	NaN	NaN	NaN	NaN	NaN	NaN	NaN	NaN	NaN	782.255	1812.81274	44.81235	NaN	NaN	NaN
81	0.8	346.80939	100.99191	172.31067	840.71796	1527.55591	-112.28691	689.6814	1395.07935	-372.57504	977.77173	1257.83301	378.83612	1130.76672	1387.40198	154.94633	991.16266	738.10455	-113.10878	1046.66675	538.87317	-80.03932	1123.02393	1325.44983	187.35278	917.40747	1385.82227	334.508	1044.83569	342.6058	-83.69268	922.99048	981.74536	187.12305	1105.99084	122.96437	-42.7633	1259.43579	110.07554	-4.82183	886.65979	1530.3291	202.91208	1076.53027	1355.37805	177.46732	1055.65527	1289.90222	286.31903	947.75702	1021.07086	-52.80968	978.72992	1305.4281	33.45243	934.93268	1760.90869	-41.42091	695.91565	721.94409	235.85361	935.72626	1751.44946	102.27048	803.01349	1158.0415	-329.8812	853.71558	1117.94031	-305.92038	753.54321	1471.71863	-266.39148	604.64465	530.3302	199.27469	807.69208	1652.31519	97.0005	742.93341	1266.16016	-365.17175	792.42487	1538.05457	50.08263	832.76337	1191.1665	-292.91711	456.13809	412.53235	199.13435	933.21558	1478.11475	19.35367	1066.86731	93.39374	2.89828	323.49487	271.6116	165.50111	818.46753	1664.93103	-45.35221	747.58032	1377.03882	140.12128	285.47659	267.32584	101.13679	734.22815	1273.14136	76.62868	738.1062	1075.12378	-3.02941	730.30719	1071.48059	112.53418	NaN	NaN	NaN	2845.86572	1034.61609	-3357.4209	NaN	NaN	NaN	NaN	NaN	NaN	NaN	NaN	NaN	NaN	NaN	NaN	NaN	NaN	NaN	NaN	NaN	NaN	NaN	NaN	NaN	NaN	NaN	NaN	822.27203	1813.55383	42.8728	NaN	NaN	NaN
